<?xml version="1.0" encoding="UTF-8"?><svg id="Layer_1" xmlns="http://www.w3.org/2000/svg" xmlns:xlink="http://www.w3.org/1999/xlink" viewBox="0 0 310.41 373.62"><defs><style>.cls-1{fill:url(#linear-gradient);}</style><linearGradient id="linear-gradient" x1="79.73" y1="345.67" x2="291.59" y2="-21.28" gradientUnits="userSpaceOnUse"><stop offset=".04" stop-color="#3f007c"/><stop offset=".05" stop-color="#43027a"/><stop offset=".17" stop-color="#751c67"/><stop offset=".3" stop-color="#9f3357"/><stop offset=".42" stop-color="#c1454a"/><stop offset=".55" stop-color="#dc5340"/><stop offset=".67" stop-color="#ef5d38"/><stop offset=".8" stop-color="#fb6434"/><stop offset=".94" stop-color="#f63"/></linearGradient></defs><path class="cls-1" d="M300.95,223.15c0,83.1-67.37,150.47-150.47,150.47S0,306.25,0,223.15,67.37,72.67,150.47,72.67c2.15,0,4.29,.06,6.42,.15-12.26,9.72-16.27,13.55-16.27,13.55,0,0-7.66,6.76-17.31,15.04-56.04,12.3-97.98,62.22-97.98,121.95,0,16.76,3.31,32.74,9.3,47.34C71.35,134.51,201.43,60.02,232.08,44.17c-144.07,148.34-113.12,226.24-90.71,259.33,41.99,48.21,82.35,22.25,103.48,1.31,18.83-21.86,30.22-50.32,30.22-81.44,0-52.01-31.81-96.59-77.03-115.36l17-20.79c50.8,24.16,85.91,75.94,85.91,135.94ZM231.1,25.11s11.74,10.67,17.07,28.81c13.87-17.07,32.02-32.02,49.09-46.96-22.41,8.54-66.17,18.14-66.17,18.14Zm-4.62-2.09s14.89,13.54,21.66,36.55c17.6-21.66,40.61-40.61,62.27-59.56-28.43,10.83-83.93,23.01-83.93,23.01Z"/></svg>